<mxfile host="app.diagrams.net" modified="2023-11-11T13:01:59.128Z" agent="Mozilla/5.0 (Macintosh; Intel Mac OS X 10_15_7) AppleWebKit/605.1.15 (KHTML, like Gecko) Version/17.0 Safari/605.1.15" etag="XdscF9W3pPhIAelDIx6x" version="22.1.0" type="device">
  <diagram name="Page-1" id="9f46799a-70d6-7492-0946-bef42562c5a5">
    <mxGraphModel dx="820" dy="520" grid="1" gridSize="10" guides="1" tooltips="1" connect="1" arrows="1" fold="1" page="1" pageScale="1" pageWidth="1100" pageHeight="850" background="none" math="0" shadow="0">
      <root>
        <mxCell id="0" />
        <mxCell id="1" parent="0" />
        <mxCell id="KmGscnU850aXNzhhe2W2-1" value="Frontend&lt;br&gt;Web-App" style="rounded=0;whiteSpace=wrap;html=1;" vertex="1" parent="1">
          <mxGeometry x="150" y="150" width="120" height="60" as="geometry" />
        </mxCell>
        <mxCell id="KmGscnU850aXNzhhe2W2-20" value="" style="edgeStyle=orthogonalEdgeStyle;rounded=0;orthogonalLoop=1;jettySize=auto;html=1;" edge="1" parent="1" source="KmGscnU850aXNzhhe2W2-2" target="KmGscnU850aXNzhhe2W2-19">
          <mxGeometry relative="1" as="geometry" />
        </mxCell>
        <mxCell id="KmGscnU850aXNzhhe2W2-22" value="" style="edgeStyle=orthogonalEdgeStyle;rounded=0;orthogonalLoop=1;jettySize=auto;html=1;" edge="1" parent="1" source="KmGscnU850aXNzhhe2W2-2" target="KmGscnU850aXNzhhe2W2-21">
          <mxGeometry relative="1" as="geometry" />
        </mxCell>
        <mxCell id="KmGscnU850aXNzhhe2W2-23" value="SAML" style="edgeLabel;html=1;align=center;verticalAlign=middle;resizable=0;points=[];" vertex="1" connectable="0" parent="KmGscnU850aXNzhhe2W2-22">
          <mxGeometry x="-0.1458" y="-2" relative="1" as="geometry">
            <mxPoint y="-12" as="offset" />
          </mxGeometry>
        </mxCell>
        <mxCell id="KmGscnU850aXNzhhe2W2-2" value="Backend&lt;br&gt;DB_Access" style="rounded=0;whiteSpace=wrap;html=1;" vertex="1" parent="1">
          <mxGeometry x="360" y="150" width="120" height="60" as="geometry" />
        </mxCell>
        <mxCell id="KmGscnU850aXNzhhe2W2-3" value="NoSQL" style="shape=cylinder3;whiteSpace=wrap;html=1;boundedLbl=1;backgroundOutline=1;size=15;" vertex="1" parent="1">
          <mxGeometry x="180" y="260" width="60" height="80" as="geometry" />
        </mxCell>
        <mxCell id="KmGscnU850aXNzhhe2W2-4" value="SQL" style="shape=cylinder3;whiteSpace=wrap;html=1;boundedLbl=1;backgroundOutline=1;size=15;" vertex="1" parent="1">
          <mxGeometry x="390" y="260" width="60" height="80" as="geometry" />
        </mxCell>
        <mxCell id="KmGscnU850aXNzhhe2W2-5" style="edgeStyle=orthogonalEdgeStyle;rounded=0;orthogonalLoop=1;jettySize=auto;html=1;exitX=0.5;exitY=1;exitDx=0;exitDy=0;entryX=0.5;entryY=0;entryDx=0;entryDy=0;entryPerimeter=0;" edge="1" parent="1" source="KmGscnU850aXNzhhe2W2-1" target="KmGscnU850aXNzhhe2W2-3">
          <mxGeometry relative="1" as="geometry" />
        </mxCell>
        <mxCell id="KmGscnU850aXNzhhe2W2-6" style="edgeStyle=orthogonalEdgeStyle;rounded=0;orthogonalLoop=1;jettySize=auto;html=1;exitX=0.5;exitY=1;exitDx=0;exitDy=0;entryX=0.5;entryY=0;entryDx=0;entryDy=0;entryPerimeter=0;" edge="1" parent="1" source="KmGscnU850aXNzhhe2W2-2" target="KmGscnU850aXNzhhe2W2-4">
          <mxGeometry relative="1" as="geometry" />
        </mxCell>
        <mxCell id="KmGscnU850aXNzhhe2W2-7" value="" style="endArrow=classic;startArrow=classic;html=1;rounded=0;exitX=1;exitY=0.5;exitDx=0;exitDy=0;entryX=0;entryY=0.5;entryDx=0;entryDy=0;" edge="1" parent="1" source="KmGscnU850aXNzhhe2W2-1" target="KmGscnU850aXNzhhe2W2-2">
          <mxGeometry width="50" height="50" relative="1" as="geometry">
            <mxPoint x="310" y="320" as="sourcePoint" />
            <mxPoint x="360" y="270" as="targetPoint" />
          </mxGeometry>
        </mxCell>
        <mxCell id="KmGscnU850aXNzhhe2W2-10" value="jwt &lt;br&gt;token" style="shape=note;whiteSpace=wrap;html=1;backgroundOutline=1;darkOpacity=0.05;size=14;" vertex="1" parent="1">
          <mxGeometry x="290" y="130" width="50" height="40" as="geometry" />
        </mxCell>
        <mxCell id="KmGscnU850aXNzhhe2W2-11" value="" style="shape=umlActor;verticalLabelPosition=bottom;verticalAlign=top;html=1;" vertex="1" parent="1">
          <mxGeometry x="195" y="80" width="30" height="60" as="geometry" />
        </mxCell>
        <mxCell id="KmGscnU850aXNzhhe2W2-19" value="Message Broker" style="rounded=0;whiteSpace=wrap;html=1;" vertex="1" parent="1">
          <mxGeometry x="360" y="50" width="120" height="60" as="geometry" />
        </mxCell>
        <mxCell id="KmGscnU850aXNzhhe2W2-21" value="Azure" style="ellipse;shape=cloud;whiteSpace=wrap;html=1;rounded=0;" vertex="1" parent="1">
          <mxGeometry x="560" y="140" width="120" height="80" as="geometry" />
        </mxCell>
      </root>
    </mxGraphModel>
  </diagram>
</mxfile>
